<?xml version="1.0" encoding="utf-8"?>
<!-- Generator: Adobe Illustrator 19.0.0, SVG Export Plug-In . SVG Version: 6.00 Build 0)  -->
<svg version="1.1" id="Layer_1" xmlns="http://www.w3.org/2000/svg" xmlns:xlink="http://www.w3.org/1999/xlink" x="0px" y="0px"
	 viewBox="0 0 500 500" style="enable-background:new 0 0 500 500;" xml:space="preserve">
<style type="text/css">
	.st0{clip-path:url(#XMLID_37_);}
	.st1{clip-path:url(#XMLID_38_);}
	.st2{fill:url(#SVGID_1_);}
</style>
<g>
	<g>
		<g transform="translate(200 -251.37)">
			<defs>
				<path id="XMLID_4_" d="M450.6,408.8L450.6,408.8c-10.5,0-21.6-1.1-32.8-3.5c-46.1-9.6-80.1-36.7-80.1-62.4c0-2,0.2-3.9,0.6-5.9
					c3.3-16,20-27.3,43.2-31.9c4.9,18.9,16.2,62.2,16.2,62.2c2.2,8.6,3.4,11.9,5.6,15.6c2.8,4.8,7.4,8.8,13.8,9.4
					c3.5,0.3,8.7-0.1,11.6-2.2c2.7-1.9,3.1-3.9,3-5.8c-0.2-3.8-2.5-6.3-6.2-6.3c-3.8,0-5,2.8-5,4.6c0,2.5,1.5,2.9,1.4,4.7
					c0,0.9-0.9,2.4-3.2,2.1c-2.9-0.5-5.4-2.8-7-6.8c-0.4-0.9-0.8-2.2-1.4-4.4l-2.9-11.3h19.2c-2.5-9.1-6.8-25.2-8-29.7H409l6.7,24.8
					h-9.5L391,303.6c4.9-0.6,10-0.8,15.4-0.8c10.2,0,21,1.1,32.1,3.4c46.2,9.6,81.5,37,81.6,62.8c0,1.9-0.2,3.8-0.6,5.7
					C515,395.8,486.3,408.8,450.6,408.8L450.6,408.8 M365.3,381.7h11.3c17.4,0,18.6-8.9,17.2-15.2c-1.8-7.8-6.5-13.4-26.5-13.4
					c-2-7.3-3.7-13.6-4.3-15.8h-9.8C355.1,343.9,365.3,381.7,365.3,381.7 M452.9,347.7c0,10.7,9.7,19.9,20,19.9
					c5.1,0,9.6-2.4,9.6-6.5c0-4.2-3.4-8.6-8.4-10.2c-3.2-1.1-6.3-1.7-11.7-1.7c-0.1-1.1-0.1-1.6-0.1-2.2c0-2.9,2.4-5.3,5.8-5.3
					c4.5,0,8.8,4.2,9.3,4.7l1.7-4.5c-1.4-1.4-2.9-2.6-4.6-3.5c-2.7-1.4-5.8-2.2-9.2-2.2C457.9,336.3,452.9,340.9,452.9,347.7
					 M507,367.4c5.4,0,6.2-3.2,6.2-5.7c0-2.9-2.1-4.9-4.4-4.9c-1.8,0-2.6,0.7-2.9,1c-0.8,0.8-1,1.7-1.1,2.4
					c-0.1,0.8-0.4,1.6-1.3,1.8c-1.4,0.2-2.5-0.3-3.6-1.4c-1.6-1.4-2.9-3.6-3.9-5.7c-0.7-1.5-1.2-2.8-1.5-3.8l-3.8-13.8H481l8,29.7
					h9.5l-1.7-5.9C499,363.7,503.2,367.4,507,367.4 M431.1,366.9h24.3c-2.8-9.2-15.9-16.7-19.6-23.7h15.3l-1.6-6h-24.8
					c0,9.4,15.7,20.2,18.7,24.8h-13.5L431.1,366.9L431.1,366.9z M373.9,377.3c-1.4-5.2-3.4-12.5-5.3-19.5c7.7,0,12.6,1.4,15,9
					c1.9,6.3,1.2,10.5-8,10.5H373.9z M468,361.3c-2.4-1.9-4.3-4.8-5-8.1c4.4,0.2,6.9,0.8,9.2,2.6c2.1,1.6,3,3.4,3,5
					c0,0.8-0.5,2.2-2.9,2.2C471.2,363,469.5,362.4,468,361.3"/>
			</defs>
			<clipPath id="XMLID_37_">
				<use xlink:href="#XMLID_4_"  style="overflow:visible;"/>
			</clipPath>
			<g transform="matrix(1.92 0 0 -1.92 -773.43 1184.5)" class="st0">
				<g id="XMLID_6_">
					<defs>
						<polygon id="XMLID_8_" points="337.7,408.8 520,408.8 520,302.8 337.7,302.8 337.7,408.8 						"/>
					</defs>
					<clipPath id="XMLID_38_">
						<use xlink:href="#XMLID_8_"  style="overflow:visible;"/>
					</clipPath>
					<g id="XMLID_7_" class="st1">
						
							<radialGradient id="SVGID_1_" cx="299.4949" cy="225.5447" r="2.1876" gradientTransform="matrix(153.4836 0 0 -153.4836 -45612.3242 35032.7852)" gradientUnits="userSpaceOnUse">
							<stop  offset="0" style="stop-color:#00B9F2"/>
							<stop  offset="0.2528" style="stop-color:#00B9F2"/>
							<stop  offset="0.5275" style="stop-color:#00A5E8"/>
							<stop  offset="1" style="stop-color:#006CB7"/>
						</radialGradient>
						<path class="st2" d="M450.6,408.8L450.6,408.8c-10.5,0-21.6-1.1-32.8-3.5c-46.1-9.6-80.1-36.7-80.1-62.4c0-2,0.2-3.9,0.6-5.9
							c3.3-16,20-27.3,43.2-31.9c4.9,18.9,16.2,62.2,16.2,62.2c2.2,8.6,3.4,11.9,5.6,15.6c2.8,4.8,7.4,8.8,13.8,9.4
							c3.5,0.3,8.7-0.1,11.6-2.2c2.7-1.9,3.1-3.9,3-5.8c-0.2-3.8-2.5-6.3-6.2-6.3c-3.8,0-5,2.8-5,4.6c0,2.5,1.5,2.9,1.4,4.7
							c0,0.9-0.9,2.4-3.2,2.1c-2.9-0.5-5.4-2.8-7-6.8c-0.4-0.9-0.8-2.2-1.4-4.4l-2.9-11.3h19.2c-2.5-9.1-6.8-25.2-8-29.7H409
							l6.7,24.8h-9.5L391,303.6c4.9-0.6,10-0.8,15.4-0.8c10.2,0,21,1.1,32.1,3.4c46.2,9.6,81.5,37,81.6,62.8c0,1.9-0.2,3.8-0.6,5.7
							C515,395.8,486.3,408.8,450.6,408.8L450.6,408.8 M365.3,381.7h11.3c17.4,0,18.6-8.9,17.2-15.2c-1.8-7.8-6.5-13.4-26.5-13.4
							c-2-7.3-3.7-13.6-4.3-15.8h-9.8C355.1,343.9,365.3,381.7,365.3,381.7 M452.9,347.7c0,10.7,9.7,19.9,20,19.9
							c5.1,0,9.6-2.4,9.6-6.5c0-4.2-3.4-8.6-8.4-10.2c-3.2-1.1-6.3-1.7-11.7-1.7c-0.1-1.1-0.1-1.6-0.1-2.2c0-2.9,2.4-5.3,5.8-5.3
							c4.5,0,8.8,4.2,9.3,4.7l1.7-4.5c-1.4-1.4-2.9-2.6-4.6-3.5c-2.7-1.4-5.8-2.2-9.2-2.2C457.9,336.3,452.9,340.9,452.9,347.7
							 M507,367.4c5.4,0,6.2-3.2,6.2-5.7c0-2.9-2.1-4.9-4.4-4.9c-1.8,0-2.6,0.7-2.9,1c-0.8,0.8-1,1.7-1.1,2.4
							c-0.1,0.8-0.4,1.6-1.3,1.8c-1.4,0.2-2.5-0.3-3.6-1.4c-1.6-1.4-2.9-3.6-3.9-5.7c-0.7-1.5-1.2-2.8-1.5-3.8l-3.8-13.8H481l8,29.7
							h9.5l-1.7-5.9C499,363.7,503.2,367.4,507,367.4 M431.1,366.9h24.3c-2.8-9.2-15.9-16.7-19.6-23.7h15.3l-1.6-6h-24.8
							c0,9.4,15.7,20.2,18.7,24.8h-13.5L431.1,366.9L431.1,366.9z M373.9,377.3c-1.4-5.2-3.4-12.5-5.3-19.5c7.7,0,12.6,1.4,15,9
							c1.9,6.3,1.2,10.5-8,10.5H373.9z M468,361.3c-2.4-1.9-4.3-4.8-5-8.1c4.4,0.2,6.9,0.8,9.2,2.6c2.1,1.6,3,3.4,3,5
							c0,0.8-0.5,2.2-2.9,2.2C471.2,363,469.5,362.4,468,361.3"/>
					</g>
				</g>
			</g>
		</g>
	</g>
</g>
</svg>
