<svg width="136" height="28" viewBox="0 0 136 28" fill="none" xmlns="http://www.w3.org/2000/svg">
<path d="M5.856 27.288C9.408 27.288 11.36 25.368 11.36 21.784V1.208H6.912V21.72C6.912 22.616 6.528 23.096 5.856 23.096H5.824C5.184 23.096 4.832 22.552 4.832 21.592V15.16H0.416V21.592C0.416 25.304 2.24 27.288 5.792 27.288H5.856ZM12.986 23.096C12.986 26.072 14.138 27.288 16.218 27.288H16.25C18.106 27.288 19.13 26.392 19.866 23.928H19.994C19.642 25.144 19.482 25.944 19.45 26.808V27H23.706V7.64H19.45V21.304C19.45 22.584 19.13 23.384 18.266 23.384H18.202C17.562 23.384 17.242 23.032 17.242 21.848V7.64H12.986V23.096ZM29.5873 27V1.208H25.2993V27H29.5873ZM35.3998 27V1.208H31.1118V27H35.3998ZM41.3403 6.072V2.168H36.9883V6.072H41.3403ZM41.3083 27V7.64H37.0523V27H41.3083ZM48.2355 7.352C44.7795 7.352 43.0195 8.952 42.9235 12.216L42.8915 14.712H47.1155L47.1475 12.312C47.1795 11.544 47.4675 11.128 48.2675 11.128H48.2995C48.9395 11.128 49.3875 11.448 49.3875 12.184V13.944C49.3875 14.936 49.0355 15.224 48.0755 15.512L46.0915 16.024C43.6915 16.728 42.7315 18.008 42.7315 20.408V23.32C42.7315 25.944 43.9475 27.288 46.0275 27.288H46.0915C47.9475 27.288 49.0355 26.36 49.7715 23.928H49.9315C49.5155 25.304 49.3875 26.008 49.3875 26.872V27H53.6435V12.28C53.6435 9.016 51.8515 7.352 48.2995 7.352H48.2355ZM47.9155 23.352C47.3075 23.352 47.0195 23.096 47.0195 22.264V20.312C47.0195 19.224 47.3075 18.904 48.2995 18.552L49.3875 18.136V21.336C49.3875 22.712 48.8755 23.352 47.9475 23.352H47.9155ZM59.463 27V13.368C59.463 12.088 59.815 11.256 60.679 11.256H60.711C61.383 11.256 61.767 11.672 61.767 12.824V27H66.023V11.544C66.023 8.632 64.807 7.384 62.727 7.384H62.695C60.935 7.384 59.815 8.216 59.079 10.744H58.951C59.367 9.336 59.463 8.6 59.463 7.736V7.64H55.207V27H59.463ZM78.563 27.288C82.563 27.288 84.483 25.496 84.483 21.88V17.784C84.483 15.192 83.075 13.592 80.451 12.76L78.723 12.152C77.507 11.736 77.091 11.192 77.091 10.168V6.328C77.091 5.368 77.571 4.952 78.371 4.952H78.435C79.331 4.952 79.811 5.432 79.843 6.392L79.875 11H84.387L84.355 6.296C84.163 2.68 82.243 0.887999 78.403 0.887999H78.371C74.563 0.887999 72.579 2.68 72.579 6.264V10.68C72.579 13.112 73.763 14.904 76.163 15.64L78.435 16.44C79.683 16.824 79.971 17.368 79.971 18.392V21.848C79.971 22.808 79.459 23.192 78.563 23.192H78.499C77.603 23.192 77.091 22.776 77.027 21.688V17.496H72.483L72.515 21.848C72.707 25.528 74.627 27.288 78.531 27.288H78.563ZM86.725 11.448V23.032C86.725 25.816 87.973 27.288 90.757 27.288C91.461 27.288 92.229 27.192 93.029 27V23.192C92.741 23.256 92.421 23.288 92.165 23.288C91.397 23.288 90.981 22.936 90.981 22.008V11.448H93.029V7.64H90.981V2.904H86.725V7.64H85.445V11.448H86.725ZM94.1735 23.096C94.1735 26.072 95.3255 27.288 97.4055 27.288H97.4375C99.2935 27.288 100.318 26.392 101.054 23.928H101.182C100.83 25.144 100.67 25.944 100.638 26.808V27H104.894V7.64H100.638V21.304C100.638 22.584 100.318 23.384 99.4535 23.384H99.3895C98.7495 23.384 98.4295 23.032 98.4295 21.848V7.64H94.1735V23.096ZM106.327 22.296C106.327 25.72 107.607 27.288 109.815 27.288H109.847C111.607 27.288 112.695 26.392 113.367 24.088H113.495C113.111 25.368 113.015 26.072 113.015 26.904V27H117.271V1.208H113.015V6.2C113.015 7.864 113.079 9.208 113.495 10.584H113.367C112.695 8.216 111.575 7.384 109.815 7.384H109.751C107.575 7.384 106.327 8.92 106.327 12.376V22.296ZM110.615 13.048C110.615 11.768 111.031 11.256 111.767 11.256H111.799C112.599 11.256 113.015 12.056 113.015 13.4V21.112C113.015 22.584 112.631 23.416 111.799 23.416H111.767C111.031 23.416 110.615 22.872 110.615 21.464V13.048ZM123.215 6.072V2.168H118.863V6.072H123.215ZM123.183 27V7.64H118.927V27H123.183ZM130.175 27.288C133.823 27.288 135.711 25.336 135.711 21.624V13.048C135.711 9.272 133.823 7.384 130.175 7.384H130.143C126.527 7.384 124.671 9.272 124.671 13.048V21.624C124.671 25.336 126.527 27.288 130.143 27.288H130.175ZM130.143 23.448C129.375 23.448 128.959 22.872 128.959 21.624V12.984C128.959 11.768 129.375 11.224 130.143 11.224H130.175C130.975 11.224 131.391 11.768 131.391 12.984V21.624C131.391 22.872 130.975 23.448 130.207 23.448H130.143Z" fill="white"/>
</svg>
