<?xml version="1.0" encoding="UTF-8" standalone="no"?>
<!-- Created with Inkscape (http://www.inkscape.org/) -->
<svg
   xmlns:svg="http://www.w3.org/2000/svg"
   xmlns="http://www.w3.org/2000/svg"
   version="1.0"
   width="800"
   height="164"
   id="svg2">
  <defs
     id="defs4" />
  <g
     transform="translate(471.4375,-187.5)"
     id="layer1">
    <path
       d="M -237.71875,187.5 L -237.71875,351.5 L -71.4375,351.5 L 328.5625,351.5 L 328.5625,269.5 L 328.5625,187.5 L -71.4375,187.5 L -237.71875,187.5 z"
       id="path2416"
       style="fill:#000000" />
    <path
       d="M -471.4375,187.5 L -471.4375,351.5 L -237.71875,351.5 L -237.71875,187.5 L -471.4375,187.5 z"
       id="path2409"
       style="fill:#d30a1a;fill-opacity:1" />
    <path
       d="M -284.70213,336.09878 C -275.75518,334.17905 -267.67465,329.89631 -261.92334,324.0259 C -257.40326,319.41221 -253.91102,310.96246 -253.55016,310.05012 L -277.30655,296.50504 L -280.31971,301.12489 C -283.95409,306.69723 -288.43187,310.25327 -296.34061,311.64636 C -309.06813,313.88827 -319.25845,309.63997 -323.89754,300.15801 C -329.62596,288.44953 -329.73032,253.39675 -324.07355,241.04073 C -320.20313,232.58663 -313.00609,228.5162 -301.92858,228.5162 C -291.55554,228.5162 -284.06779,232.3716 -280.37226,239.61544 L -278.33441,243.60996 L -274.63149,241.36829 C -268.95553,237.93217 -267.48652,237.06905 -259.68026,232.58362 L -252.43194,228.41879 L -254.52304,224.31988 C -257.46815,218.54699 -264.81987,210.99747 -270.82529,207.579 C -285.73941,199.08944 -313.27988,198.34565 -330.10373,205.97807 C -336.30326,208.79059 -343.68335,215.33047 -347.62552,221.50504 C -354.55284,232.3552 -358.07847,252.54701 -357.14159,276.00504 C -356.251,298.30414 -352.66761,311.14006 -344.5603,321.07205 C -335.3067,332.40831 -322.48948,337.38008 -302.42858,337.41485 C -296.10358,337.42581 -288.12668,336.83358 -284.70213,336.09878 z"
       id="path2407"
       style="fill:#ffffff" />
    <path
       d="M -151.09379,336.02216 C -131.9029,331.95602 -120.60868,320.8441 -115.31309,300.81899 C -113.79212,295.06751 -113.10224,288.58393 -112.69936,276.25504 L -112.15201,259.50504 L -174.49408,259.50504 L -174.49408,281.41888 L -141.42858,281.41888 C -141.27653,287.79215 -142.82728,294.11187 -145.16215,300.00504 C -150.43601,310.62113 -163.35415,315.09206 -177.02435,311.03244 C -185.23108,308.59531 -190.24009,302.03443 -192.4431,290.83676 C -194.20097,281.90169 -193.27759,249.44701 -191.10168,243.68897 C -187.08946,233.07158 -180.06189,228.53144 -167.61396,228.51481 C -156.32265,228.49973 -149.80291,233.35838 -145.13635,240.12369 L -143.49375,242.50504 L -118.48252,228.33211 L -120.9086,223.54448 C -126.07532,213.34844 -137.48529,205.31233 -150.92858,202.40123 C -159.3312,200.58167 -177.39125,200.82585 -185.83232,202.87314 C -204.23971,207.33766 -215.62162,219.74014 -220.2189,240.34305 C -222.70204,251.47135 -222.66293,287.87937 -220.15636,298.54831 C -215.22479,319.53908 -203.44946,331.80433 -184.21995,335.97991 C -175.85429,337.79646 -159.56596,337.81724 -151.09379,336.02216 z"
       id="path2405"
       style="fill:#ffffff" />
    <path
       d="M -456.4375,202.5 L -456.4375,336 L -428.4375,336 L -428.4375,292.5 L -413.6875,292.5 C -397.76188,292.48126 -388.32234,291.01175 -381.5,287.53125 C -372.24211,282.80823 -365.99711,274.54742 -362.9375,262.9375 C -361.10541,255.98552 -360.78933,238.24755 -362.375,231.21875 C -365.72686,216.3608 -376.15893,206.38385 -391.3125,203.53125 C -394.27508,202.97356 -410.13757,202.5 -426.5625,202.5 L -456.4375,202.5 z M -428.4375,227.3125 L -409.5,227.3125 C -401.71343,227.3125 -398.24544,228.23041 -395.75,230.0625 C -391.03531,233.52391 -389.4375,237.95511 -389.4375,247.5 C -389.43749,257.0449 -391.03531,261.47608 -395.75,264.9375 C -398.24544,266.76959 -403.35737,267.6875 -409.5,267.6875 L -428.4375,267.6875 L -428.4375,227.3125 z"
       id="path2403"
       style="fill:#ffffff" />
    <path
       d="M -78.75,202.5 L -119.0625,336 L -91.625,336 L -85.9375,315.5 L -41.8125,315.5 L -35.9375,336 L -7.25,336 L -48.1875,202.5 L -78.75,202.5 z M -63.21875,241.90625 L -63.125,242.03125 L -49.4375,289.34375 L -78.40625,289.25 L -63.21875,241.90625 z"
       id="path2399"
       style="fill:#ffffff" />
    <path
       d="M 23.440912,254.09551 L 49.669722,336.00504 L 68.036082,336.00504 L 94.071422,252.08897 L 94.593132,336.00504 L 121.57142,336.00504 L 121.57142,202.50504 L 85.872142,202.50504 L 59.806292,286.85717 L 34.087852,202.50504 L -2.4285786,202.50504 L -1.7327086,336.00504 L 22.608382,336.00504 L 23.440912,254.09551 z"
       id="path2395"
       style="fill:#ffffff" />
    <path
       d="M 212.57142,310.50504 L 157.57142,310.50504 L 157.57142,280.50504 L 209.57142,280.50504 L 209.57142,254.50504 L 157.57142,254.50504 L 157.57142,228.50504 L 212.57142,228.50504 L 212.57142,202.50504 L 129.57142,202.50504 L 130.23809,336.00504 L 212.57142,336.00504 L 212.57142,310.50504 z"
       id="path2393"
       style="fill:#ffffff" />
    <path
       d="M 219.59375,202.5 L 219.5,336 L 247.0625,336 L 247.625,291.4375 L 264.625,291.4375 L 283.4375,336 L 312.5625,336 L 292.625,287.90625 C 311.95832,274.48834 313.84292,261.96175 313.4375,238 C 312.29393,223.49835 306.78052,213.6638 296.71875,208.1875 C 287.83742,203.35368 281.04805,202.51912 248.84375,202.5 L 219.59375,202.5 z M 247.5625,227.5 L 268.954,227.5 C 278.105,227.5 280.88308,228.60665 284.0625,235 C 286.87695,240.65943 286.8435,254.63984 284,259.5625 C 280.62708,265.4017 277.33398,266.5 268.954,266.5 L 247.5625,266.5 L 247.5625,227.5 z"
       id="path2391"
       style="fill:#ffffff" />
    <path
       d="M 312.57142,209.50504 C 314.98276,207.0937 315.05845,206.13494 312.99999,204.07647 C 309.92475,201.00123 305.57142,202.80554 305.57142,207.15535 C 305.57142,209.15883 307.76817,211.39139 309.82142,211.47464 C 310.23392,211.49136 311.47142,210.60504 312.57142,209.50504 z"
       id="path2387"
       style="fill:#000000" />
    <path
       d="M 306.63481,207.37749 C 306.55054,205.2138 309.1658,203.13542 311.05869,203.86178 C 311.89069,204.18105 312.51922,205.4689 312.45542,206.72366 C 312.36831,208.43672 312.2249,208.56605 311.87974,207.2428 C 311.62691,206.27357 310.93458,205.7806 310.34123,206.14731 C 309.69983,206.54372 309.55171,206.34595 309.97593,205.65955 C 310.36837,205.02457 310.1984,204.50504 309.59821,204.50504 C 308.99803,204.50504 308.1,205.51754 307.60258,206.75504 C 306.99057,208.27766 306.6777,208.47889 306.63481,207.37749 z"
       id="path2398"
       style="fill:#000000" />
    <text
       x="834.73956"
       y="7.3758483"
       transform="translate(-471.4375,187.5)"
       id="text2435"
       xml:space="preserve"
       style="font-size:40px;font-style:normal;font-weight:normal;fill:#000000;fill-opacity:1;stroke:none;stroke-width:1px;stroke-linecap:butt;stroke-linejoin:miter;stroke-opacity:1;font-family:Bitstream Vera Sans"><tspan
         x="834.73956"
         y="7.3758483"
         id="tspan2437" /></text>
  </g>
  <g
     id="layer2">
    <g
       transform="matrix(4.3653701e-2,0,0,4.3653701e-2,776.89805,8.14145)"
       id="g2740"
       style="fill:#ffffff">
      <g
         id="g2742"
         style="fill:#ffffff">
        <path
           d="M 106.3125,176.2031 C 135.28123,176.2031 160.17187,186.58593 180.9844,207.3516 C 201.79687,228.1172 212.2031,253.07813 212.2031,282.2344 C 212.2031,311.39067 201.84373,336.37503 181.125,357.1875 C 160.40627,377.99997 135.46877,388.4062 106.3125,388.4062 C 77.0625,388.4062 52.031267,378.0234 31.2188,357.2578 C 10.406267,336.4922 0,311.4844 0,282.2344 C 0,253.07813 10.406267,228.1172 31.2188,207.3516 C 52.031267,186.58593 77.0625,176.2031 106.3125,176.2031 z M 106.0312,370.9688 C 130.31247,370.9688 151.14843,362.27347 168.5391,344.8828 C 185.9297,327.4922 194.625,306.6094 194.625,282.2344 C 194.625,257.8594 185.95313,237.02347 168.6094,219.7266 C 151.26567,202.42967 130.40627,193.7812 106.0312,193.7812 C 81.656267,193.7812 60.820333,202.42967 43.5234,219.7266 C 26.226533,237.02347 17.5781,257.8594 17.5781,282.2344 C 17.5781,306.6094 26.226533,327.4922 43.5234,344.8828 C 60.820333,362.27347 81.656267,370.9688 106.0312,370.9688 z M 155.5312,341.0156 L 133.0312,341.0156 C 118.875,315.2344 109.6172,300.70317 105.2578,297.4219 C 100.89847,294.14063 95.4844,292.5 89.0156,292.5 L 78.0469,292.5 L 78.0469,341.0156 L 59.625,341.0156 L 59.625,226.9688 L 99.1406,226.9688 C 110.95313,226.9688 120.0469,227.81253 126.4219,229.5 C 132.7969,231.18747 137.95313,234.7734 141.8906,240.2578 C 145.82813,245.7422 147.7969,251.57813 147.7969,257.7656 C 147.7969,265.54687 144.9844,272.625 139.3594,279 C 133.7344,285.375 125.6719,288.9375 115.1719,289.6875 L 115.1719,290.25 C 122.01563,291.84373 130.875,301.35937 141.75,318.7969 L 155.5312,341.0156 z M 78.0469,276.75 L 100.5469,276.75 C 110.85937,276.75 118.03123,275.22657 122.0625,272.1797 C 126.09377,269.13283 128.1094,264.89063 128.1094,259.4531 C 128.1094,254.10937 126.16407,249.9375 122.2734,246.9375 C 118.3828,243.9375 110.67187,242.4375 99.1406,242.4375 L 78.0469,242.4375 L 78.0469,276.75 z"
           id="path2744"
           style="fill:#ffffff;stroke:none" />
      </g>
    </g>
  </g>
</svg>
