<?xml version="1.0" encoding="UTF-8"?>
<svg width="96px" height="81px" viewBox="0 0 96 81" version="1.1" xmlns="http://www.w3.org/2000/svg" xmlns:xlink="http://www.w3.org/1999/xlink">
    <!-- Generator: Sketch 64 (93537) - https://sketch.com -->
    <title>quote</title>
    <desc>Created with Sketch.</desc>
    <g id="Page-1" stroke="none" stroke-width="1" fill="none" fill-rule="evenodd">
        <g id="quote" fill="#C9CACA" fill-rule="nonzero">
            <path d="M30.512,36.939 C28.164,36.263 25.816,35.92 23.532,35.92 C20.005,35.92 17.062,36.726 14.78,37.713 C16.98,29.659 22.265,15.762 32.793,14.197 C33.768,14.052 34.567,13.347 34.833,12.398 L37.134,4.168 C37.328,3.472 37.213,2.727 36.816,2.123 C36.419,1.519 35.781,1.116 35.066,1.018 C34.289,0.912 33.497,0.858 32.712,0.858 C20.075,0.858 7.56,14.048 2.279,32.934 C-0.821,44.014 -1.73,60.672 5.906,71.157 C10.179,77.024 16.413,80.157 24.435,80.47 C24.468,80.471 24.5,80.472 24.533,80.472 C34.431,80.472 43.208,73.806 45.878,64.263 C47.473,58.558 46.752,52.575 43.846,47.412 C40.971,42.307 36.236,38.586 30.512,36.939 Z" id="Path"></path>
            <path d="M92.471,47.413 C89.596,42.307 84.861,38.586 79.137,36.939 C76.789,36.263 74.441,35.92 72.158,35.92 C68.631,35.92 65.687,36.726 63.405,37.713 C65.605,29.659 70.89,15.762 81.419,14.197 C82.394,14.052 83.192,13.347 83.459,12.398 L85.76,4.168 C85.954,3.472 85.839,2.727 85.442,2.123 C85.046,1.519 84.408,1.116 83.692,1.018 C82.916,0.912 82.124,0.858 81.338,0.858 C68.701,0.858 56.186,14.048 50.904,32.934 C47.805,44.014 46.896,60.672 54.533,71.159 C58.805,77.025 65.04,80.159 73.061,80.471 C73.094,80.472 73.126,80.473 73.16,80.473 C83.057,80.473 91.835,73.807 94.505,64.264 C96.098,58.559 95.376,52.575 92.471,47.413 Z" id="Path"></path>
        </g>
    </g>
</svg>